<?xml version="1.0" encoding="utf-8"?><svg viewBox="0 0 30 30" xmlns="http://www.w3.org/2000/svg" xmlns:xlink="http://www.w3.org/1999/xlink"><style>:root>svg{display:none}:root>svg:target{display:block}</style><svg viewBox="0 0 26 26" id="arrow-type-1" xmlns="http://www.w3.org/2000/svg"><path d="M6 14.014v-1.35h10.624l-2.69-2.645L14.961 9l4.343 4.343-4.343 4.343-1.029-1.019 2.7-2.654H6z"/></svg><svg viewBox="0 0 30 30" id="close" xmlns="http://www.w3.org/2000/svg"><path fill-rule="evenodd" clip-rule="evenodd" d="M6.952 6.951a1.2 1.2 0 011.697 0L15 13.303l6.352-6.352a1.2 1.2 0 111.697 1.698L16.697 15l6.352 6.352a1.2 1.2 0 11-1.697 1.697L15 16.697 8.65 23.05a1.2 1.2 0 11-1.697-1.697L13.303 15 6.952 8.649a1.2 1.2 0 010-1.698z"/></svg><svg viewBox="0 0 30 30" id="menu-open" xmlns="http://www.w3.org/2000/svg"><path d="M6 10h18v2H6v-2zM6 14h13v2H6v-2zM6 18h18v2H6v-2z"/></svg></svg>